PathFileType	4	(X/Y/Z)	Patient4_TMGait_0pt4_03_right_29.trc.trc
DataRate	CameraRate	NumFrames	NumMarkers	Units	OrigDataRate	OrigDataStartFrame	OrigNumFrames
72.538860103627	72.538860103627	4	33	mm	72.538860103627	124	       141
Frame#	Time	Sacral			L.Shoulder			Chest			R.Shoulder			Neck			R.ASIS			L.ASIS			R.Thigh.Superior			R.Thigh.Lateral			R.Thigh.Inferior			R.Patella			L.Thigh.Superior			L.Thigh.Lateral			L.Thigh.Inferior			L.Patella			L.Shank.Superior			L.Shank.Lateral			L.Shank.Inferior			R.Shank.Superior			R.Shank.Lateral			R.Shank.Inferior			R.Heel			R.Midfoot.Superior			R.Midfoot.Lateral			R.Toe			L.Heel			L.Midfoot.Lateral			L.Midfoot.Superior			L.Toe			L.Elbow			L.Wrist			R.Elbow			R.Wrist			
		X1	Y1	Z1	X2	Y2	Z2	X3	Y3	Z3	X4	Y4	Z4	X5	Y5	Z5	X6	Y6	Z6	X7	Y7	Z7	X8	Y8	Z8	X9	Y9	Z9	X10	Y10	Z10	X11	Y11	Z11	X12	Y12	Z12	X13	Y13	Z13	X14	Y14	Z14	X15	Y15	Z15	X16	Y16	Z16	X17	Y17	Z17	X18	Y18	Z18	X19	Y19	Z19	X20	Y20	Z20	X21	Y21	Z21	X22	Y22	Z22	X23	Y23	Z23	X24	Y24	Z24	X25	Y25	Z25	X26	Y26	Z26	X27	Y27	Z27	X28	Y28	Z28	X29	Y29	Z29	X30	Y30	Z30	X31	Y31	Z31	X32	Y32	Z32	X33	Y33	Z33	

124	39.215642857143	850.466396608978	1004.077960779576	408.635130532295	1055.290174578058	1423.842278592140	227.022904363847	1136.598825563239	1360.799786057032	401.692374208436	1033.701712692983	1440.317169824153	562.424966320606	1023.471819235064	1492.263372165298	378.498555870641	1068.227296072708	942.995686223372	549.674078031720	1081.125519636876	957.269492103359	272.195356591972	1128.051202229409	751.791044260355	532.681599835274	1057.808689058167	636.085201900947	595.745808690648	1147.926623182097	590.603329828140	523.261140862040	1166.105647481511	509.943964709234	534.934111864802	1088.850087544396	731.568823699553	304.445989919827	981.709765427013	631.422808489767	233.464544156776	1044.756912792092	541.136471145398	299.278829540152	1032.374308913339	472.763496842692	306.649590944402	997.329625750311	405.506678321371	296.525884057655	893.952120434638	304.261260537303	241.716774512114	926.319428652327	186.144461651338	312.284553469178	1149.091113416113	421.405234990224	547.025330833607	1089.535397193708	311.124171719804	609.687913205383	1156.372142663419	222.163716660589	560.541539145822	1057.310711143780	44.260341216354	533.963262605627	1223.842771346415	104.875578914698	572.639824869280	1140.286185678248	39.365714676819	608.851169909774	1345.754037099869	60.927670205427	600.656938094257	785.525679177793	38.892496528560	353.586764569943	856.869305947405	34.853725897377	270.994925370286	941.583458116686	94.476473050245	297.791236364841	1069.000012785338	41.204326597248	263.619320906096	1061.931055407001	1077.675440153526	99.626618236765	1310.990903162884	1018.987927335348	123.421397390158	902.906564368266	1123.983371484895	682.386853042286	913.648424567807	863.170290882512	708.412520209916	
125	39.229428571429	852.006998112579	1002.814555458838	412.398203003804	1054.033042573712	1423.379386887903	230.516328106666	1136.611521324470	1360.631141130896	404.721727323617	1034.113285607925	1439.492233432351	566.097564679133	1022.822074612156	1491.588114464413	382.232129440693	1070.596348611716	942.038191730074	552.274390324882	1082.523369259721	956.844374028587	274.880909024287	1129.845231168587	749.795675585050	534.110396535271	1058.260504698239	634.562709677037	596.133420490587	1147.611945902877	589.022524704839	523.076357835584	1164.042306317991	507.392000589679	533.906383856494	1090.235272296790	730.563135654724	305.976396502925	982.132038598065	630.580404262967	235.850950987020	1045.644879077898	539.863357788414	300.811203816025	1033.394998288185	470.795870529386	307.795492170572	996.651416089286	404.110886642183	297.901178186102	891.349946612565	304.740316656820	243.132940743617	922.290801539979	185.698273541630	312.821016145430	1146.172298407437	418.336750595402	546.162983577825	1084.952370729053	308.864458733669	608.872502292956	1149.533423399422	218.846901124276	558.738369363009	1046.666694149084	43.130032902540	532.478170011333	1213.991260947783	101.598481152842	570.250303167238	1129.596407133012	37.932311923526	607.435957116557	1335.682334282269	56.047380821005	598.564530617103	779.949590146783	39.314853078304	353.609875553545	851.354052707938	34.984021495688	271.119888067814	936.282766789355	94.463245789706	297.844926817881	1063.531893734465	40.929725055675	263.508676690429	1059.570008466847	1076.822665869416	103.536788879836	1308.111699645292	1014.736714938304	127.456530953574	906.710500666912	1121.549038187856	686.176656150017	922.546579595907	860.788018232807	711.443387215633	
126	39.243214285714	853.461610895618	1001.719869380800	416.184175904750	1052.799686247204	1423.108901165429	234.162328616207	1136.649634735865	1360.581004261910	407.878876074789	1034.596996776108	1438.782413556790	569.913077519910	1022.234917632660	1491.090853388483	386.147056826728	1072.901617562644	941.333902888543	554.939906922885	1083.814276511350	956.548337912178	277.654139392088	1131.705011886678	748.248056444136	535.294996836789	1059.352871274759	633.593013416419	596.811245458970	1147.677733200566	587.909811533727	522.900941770594	1162.507541701971	505.324538863978	533.221187808699	1091.897835606171	729.756322085248	307.581652889239	983.097803296863	629.713174938444	238.361506212365	1047.369704475703	538.671759221364	302.430871185199	1035.348143268252	468.751716556014	308.900988501216	996.668942624564	402.708108950976	299.279917336897	889.250718995130	305.499462202373	244.642271872371	918.581034835300	185.446873043058	313.311959334004	1143.910891890625	415.867217533568	545.685477806362	1081.405742711283	307.167167366225	608.734766818461	1143.683193925157	216.165285285537	557.437764398704	1037.243198359124	42.299820773368	531.661555475526	1205.226561573671	99.199849433816	568.452299664069	1120.230657463112	36.978799050760	606.596531870740	1326.816786904011	52.374931582195	596.888525826356	774.424186519354	40.246658810540	353.601277637659	845.880785514516	35.351601461267	271.241020960773	931.173194593993	94.527585834995	297.810169413184	1058.086948265117	40.609295266574	263.375104985906	1056.940138586117	1076.134050874680	107.587883019038	1304.680144050253	1009.378196472905	131.235485518386	911.263178650478	1118.975834416794	690.244742108684	932.681931769168	858.393492050757	714.785141491714	
127	39.257000000000	854.801964984938	1000.854173753600	419.967242661183	1051.628622261649	1423.088723781121	237.935085276878	1136.707915826315	1360.675652499911	411.145447165275	1035.141777713794	1438.232512176588	573.832961021721	1021.716400253695	1490.812673392753	390.207407275535	1075.073842437530	940.923974266080	557.685125693866	1084.938157226639	956.426746703990	280.519271252515	1133.538613865620	747.205404563480	536.337892220284	1060.966216802004	633.151669998965	597.840612079112	1148.081153298250	587.250811654459	522.886444565060	1161.470903020815	503.768414399476	533.015330472989	1093.815961929749	729.221979150146	309.338049418609	984.714066493717	628.862096334279	240.961954321221	1050.069372653721	537.631847447102	304.121905873879	1038.364420393269	466.699429260425	309.912689113087	997.526119924510	401.362626728481	300.593444217508	887.787094753314	306.639890477103	246.196742644858	915.298780446115	185.496225226150	313.701034341452	1142.253267739001	414.014757130185	545.653650985773	1078.820267190205	306.020108862951	609.245116385300	1138.820982186901	214.144839061149	556.662224831684	1029.146526848286	41.759250133347	531.393143678778	1197.635731562737	97.644200206262	567.272171642548	1112.251234243772	36.444821228919	606.254084520890	1319.209175039884	49.883320665889	595.701158246064	769.013830522031	41.907208641549	353.544186220811	840.487124858736	36.079927939364	271.342880503560	926.337557626735	94.713376067867	297.646149747766	1052.668197367253	40.245240077117	263.223441823983	1054.051300190698	1075.674636781018	111.789511700967	1300.595471776033	1002.904295536719	134.721076016088	916.550492865031	1116.356021581796	694.557176319669	944.022273023792	856.122738383082	718.400417300431	
